<?xml version="1.0" encoding="UTF-8" standalone="no"?>
<svg width="640px" height="1024px" viewBox="0 0 640 1024" version="1.1" xmlns="http://www.w3.org/2000/svg" xmlns:xlink="http://www.w3.org/1999/xlink" xmlns:sketch="http://www.bohemiancoding.com/sketch/ns">
    <!-- Generator: Sketch 3.0.4 (8053) - http://www.bohemiancoding.com/sketch -->
    <title>Mobile Portrait</title>
    <desc>Created with Sketch.</desc>
    <defs></defs>
    <g id="Page-1" stroke="none" stroke-width="1" fill="none" fill-rule="evenodd" sketch:type="MSPage">
        <g id="Mobile-Portrait" sketch:type="MSArtboardGroup">
            <path d="M513.988054,218.944759 C495.4359,127.68267 414.738799,59 318,59 C221.158896,59 140.393437,127.828016 121.953296,219.234375 L121.953296,219.234375 L62.0078125,219.234375 L97.4296875,259 L62.0078125,299 C62.0078125,299 93.8455346,299.000002 122.000725,299.000003 C140.53154,390.289614 221.241685,459 318,459 C414.758315,459 495.46846,390.289614 513.999275,299.000003 C514.092124,299.000003 514.184814,299.000003 514.277344,299.000003 C548.719121,299.000002 574.297546,299 574.297546,299 L534.799119,258.443173 L574.297533,218.944759 L537.615234,218.944759 L513.988054,218.944759 Z" id="circle-bottom" stroke="#000000" stroke-width="4" sketch:type="MSShapeGroup"></path>
            <path d="M160.5,259 L176.6,259 M168.130622,210.822148 L183.442632,215.797321 M190.27555,167.360279 L203.300724,176.823622 M224.767084,132.868745 L234.230427,145.893919 M268.228953,110.723817 L273.204127,126.035827 M316.406805,103.093195 L316.406805,119.193195 M364.584658,110.723817 L359.609484,126.035827 M408.046526,132.868745 L398.583183,145.893919 M442.53806,167.360279 L429.512886,176.823622 M464.682988,210.822148 L449.370978,215.797321 M472.313611,259 L456.21361,259 M464.682988,307.177852 L449.370978,302.202679 M442.53806,350.639721 L429.512886,341.176378 M408.046526,385.131255 L398.583183,372.106081 M364.584658,407.276183 L359.609484,391.964173 M316.406805,414.906805 L316.406805,398.806805 M268.228953,407.276183 L273.204127,391.964173 M224.767085,385.131255 L234.230427,372.106081 M169.983433,309.50353 L185.014079,303.733806 M190.27555,350.639721 L203.300724,341.176378 M167.89901,308.469317 C188.66058,371.500543 248.016806,417 318,417 C405.26099,417 476,346.26099 476,259 C476,171.73901 405.26099,101 318,101 C230.73901,101 160,171.73901 160,259 C160,276.277797 162.773291,292.907857 167.89901,308.469317 Z" id="lines" stroke="#000000" stroke-width="4" stroke-linecap="square" sketch:type="MSShapeGroup"></path>
            <g id="Path-24-+-ROOSTER" sketch:type="MSLayerGroup" transform="translate(129.000000, 73.000000)">
                <path d="M8.14392016,176.262431 C8.14392016,176.262431 30.8541748,-0.446292359 199.80667,15.5428577 C377.746215,39.7371257 348.536648,208.803433 356.175597,217.223917" id="Path-24" sketch:type="MSShapeGroup" transform="translate(181.894983, 115.806010) rotate(-5.000000) translate(-181.894983, -115.806010) "></path>
            </g>
            <g id="Path-25-+-FORUM" sketch:type="MSLayerGroup" transform="translate(109.000000, 156.000000)">
                <path d="M10.9036399,244.328432 C10.9036399,244.328432 0.894913884,28.6353341 223.195081,17.5969719 C438.830398,56.7429146 484.19093,306.784533 324.479107,297.356219" id="Path-25" sketch:type="MSShapeGroup" transform="translate(215.456667, 157.181922) scale(1, -1) rotate(-5.000000) translate(-215.456667, -157.181922) "></path>
            </g>
            <circle id="Oval-3" stroke="#000000" stroke-width="4" sketch:type="MSShapeGroup" cx="320.5" cy="259.5" r="50.5"></circle>
        </g>
    </g>
</svg>